<svg width="391.81" height="512" enable-background="new 0 0 512 512" version="1.1" viewBox="0 0 391.81 512" xmlns="http://www.w3.org/2000/svg">
 <g transform="translate(-60.094)" fill="#c2b8b9">
  <path d="m297.48 145.93c0-19.84-16.233-36.073-36.073-36.073h-165.24c-19.84 0-36.073 16.233-36.073 36.073v46.179l118.69 23.273 118.69-23.273v-46.179z"/>
  <path d="m60.095 475.93c0 19.84 16.233 36.073 36.073 36.073h165.24c19.84 0 36.073-16.233 36.073-36.073v-46.179l-118.69-23.273-118.69 23.273v46.179z"/>
 </g>
 <rect x=".0010012" y="192.1" width="237.38" height="237.64" fill="#463836"/>
 <path d="m391.81 122.45c0-67.625-69.033-122.45-154.18-122.45-85.155 0-154.18 54.824-154.18 122.45 0 60.417 55.096 110.61 127.56 120.63h-0.22c3.803 23.358-3.214 48.162-21.059 66.177 38.292 0 69.902-28.84 74.702-66.174h-0.22c72.479-10.005 127.6-60.203 127.6-120.63z" fill="#ffd24d"/>
 <g transform="translate(-60.094)" fill="#f14742">
  <path d="m217.44 160.27c-13.726 0-24.46-6.1-28.011-15.919-1.64-4.532 0.705-9.536 5.238-11.176 4.53-1.637 9.536 0.704 11.176 5.238 0.791 2.188 5.029 4.402 11.598 4.402 4.089 0 11.821-1.217 11.821-5.824 0-2.612-0.535-3.855-13.234-5.932-10.42-1.705-27.862-4.558-27.862-23.148 0-13.706 12.039-23.279 29.275-23.279 13.72 0 24.454 6.095 28.009 15.908 1.642 4.532-0.702 9.536-5.233 11.178-4.532 1.644-9.536-0.702-11.178-5.232-0.792-2.186-5.029-4.4-11.598-4.4-4.089 0-11.82 1.217-11.82 5.824 0 2.607 0.535 3.847 13.226 5.922 10.424 1.705 27.87 4.558 27.87 23.158 0 13.708-12.039 23.28-29.277 23.28z"/>
  <path d="m378.01 160.27c-13.725 0-24.458-6.099-28.011-15.917-1.641-4.532 0.703-9.536 5.235-11.177 4.535-1.643 9.536 0.705 11.176 5.236 0.792 2.188 5.03 4.403 11.6 4.403 4.089 0 11.821-1.217 11.821-5.824 0-2.612-0.535-3.855-13.234-5.932-10.42-1.705-27.862-4.558-27.862-23.148 0-13.706 12.039-23.279 29.275-23.279 13.719 0 24.451 6.095 28.008 15.907 1.643 4.531-0.699 9.536-5.231 11.179-4.534 1.647-9.536-0.699-11.178-5.231-0.794-2.186-5.032-4.401-11.599-4.401-4.089 0-11.82 1.217-11.82 5.824 0 2.607 0.535 3.847 13.226 5.922 10.424 1.705 27.87 4.558 27.87 23.158 0 13.708-12.039 23.28-29.276 23.28z"/>
  <path d="m322.55 160.27c-4.821 0-8.727-3.907-8.727-8.727v-34.515l-9.466 11.089c-1.658 1.942-4.083 3.062-6.637 3.062s-4.979-1.118-6.637-3.062l-9.466-11.089v34.515c0 4.82-3.906 8.727-8.727 8.727s-8.727-3.907-8.727-8.727v-58.182c0-3.656 2.278-6.924 5.708-8.189 3.428-1.266 7.284-0.258 9.657 2.522l18.193 21.314 18.193-21.314c2.373-2.78 6.225-3.788 9.657-2.522 3.429 1.264 5.708 4.532 5.708 8.189v58.182c-2e-3 4.819-3.908 8.727-8.729 8.727z"/>
 </g>
</svg>
