<svg enable-background="new 0 0 512 512" version="1.1" viewBox="0 0 512 512" xmlns="http://www.w3.org/2000/svg">
 <circle cx="256" cy="267" r="245" fill="#5DC1D8"/>
 <path d="m287.93 402.57c0-2.206 1.794-4 4-4h4.368c0.404 0 0.77-0.243 0.924-0.617 0.155-0.374 0.069-0.804-0.217-1.09l-47.512-47.512c-2.632-2.632-4.082-6.148-4.082-9.899s1.45-7.267 4.082-9.899l1.985-1.985c2.632-2.632 6.148-4.082 9.899-4.082 3.752 0 7.267 1.45 9.899 4.082l12.454 12.454c0.191 0.191 0.447 0.293 0.707 0.293 0.129 0 0.259-0.024 0.383-0.076 0.374-0.154 0.617-0.52 0.617-0.924v-101.57c0-7.72 6.28-14 14-14h0.416c4.22 0 8 1.885 10.569 4.847v-218.59c0-5.5-4.5-10-10-10h-211.72c-5.5 0-10 4.5-10 10v389.45c0 5.5 4.5 10 10 10h199.23v-6.887h1e-3z" fill="#2E4C89"/>
 <path d="m245.42 339.45c0-3.751 1.45-7.267 4.082-9.899l1.985-1.985c2.632-2.632 6.148-4.082 9.899-4.082 3.752 0 7.267 1.45 9.899 4.082l12.454 12.454c0.191 0.191 0.447 0.293 0.707 0.293 0.129 0 0.259-0.024 0.383-0.076 0.374-0.154 0.617-0.52 0.617-0.924v-101.57c0-6.662 4.682-12.242 10.925-13.648v-180.94c0-2.902-2.375-5.277-5.277-5.277h-193.05c-2.902 0-5.276 2.375-5.276 5.277v296.9c0 2.902 2.374 5.275 5.276 5.275h148.67c-0.839-1.817-1.296-3.81-1.296-5.882z" fill="#C3DDF4"/>
 <path d="m112.6 340.06v-296.91c0-2.902 2.374-5.277 5.276-5.277h-19.842c-2.902 0-5.276 2.375-5.276 5.277v296.9c0 2.902 2.374 5.275 5.276 5.275h19.842c-2.902 1e-3 -5.276-2.372-5.276-5.274z" fill="#AEC1ED"/>
 <g fill="#1A2B63">
  <circle cx="194.56" cy="374.02" r="18.561"/>
  <path d="m234.87 26.342h-57.368c-4.142 0-7.5-3.357-7.5-7.5s3.358-7.5 7.5-7.5h57.368c4.142 0 7.5 3.357 7.5 7.5s-3.358 7.5-7.5 7.5z"/>
  <circle cx="154.25" cy="18.842" r="8.436"/>
 </g>
 <path d="m291.09 37.874h-193.05c-2.902 0-5.276 2.375-5.276 5.277v23.42h203.6v-23.42c-1e-3 -2.902-2.376-5.277-5.278-5.277z" fill="#FF9518"/>
 <path d="m117.88 37.874h-19.842c-2.902 0-5.276 2.375-5.276 5.277v23.42h19.842v-23.42c0-2.902 2.374-5.277 5.276-5.277z" fill="#EF8318"/>
 <path d="m280.76 223.19c0 5.5-4.5 10-10 10h-152.4c-5.5 0-10-4.5-10-10v-48.594c0-5.5 4.5-10 10-10h152.4c5.5 0 10 4.5 10 10v48.594z" fill="#445EA0"/>
 <path d="m245.42 339.45c0-3.751 1.45-7.267 4.082-9.899l1.985-1.985c2.632-2.632 6.148-4.082 9.899-4.082 3.752 0 7.267 1.45 9.899 4.082l12.454 12.454c0.191 0.191 0.447 0.293 0.707 0.293 0.129 0 0.259-0.024 0.383-0.076 0.374-0.154 0.617-0.52 0.617-0.924v-90.711h-192.68v91.456c0 2.902 2.374 5.275 5.276 5.275h148.67c-0.839-1.818-1.296-3.811-1.296-5.883z" fill="#EEF6FF"/>
 <path d="m112.6 340.06v-91.456h-19.842v91.456c0 2.902 2.374 5.275 5.276 5.275h19.842c-2.902 0-5.276-2.373-5.276-5.275z" fill="#D9EAFC"/>
 <g fill="#5DC1D8">
  <path d="m210.44 276.81h-79.764c-4.142 0-7.5-3.357-7.5-7.5s3.358-7.5 7.5-7.5h79.765c4.142 0 7.5 3.357 7.5 7.5-1e-3 4.142-3.359 7.5-7.501 7.5z"/>
  <path d="m210.44 301.67h-79.764c-4.142 0-7.5-3.358-7.5-7.5 0-4.143 3.358-7.5 7.5-7.5h79.765c4.142 0 7.5 3.357 7.5 7.5-1e-3 4.142-3.359 7.5-7.501 7.5z"/>
  <path d="m170.72 326.54h-40.041c-4.142 0-7.5-3.357-7.5-7.5s3.358-7.5 7.5-7.5h40.041c4.142 0 7.5 3.357 7.5 7.5s-3.358 7.5-7.5 7.5z"/>
 </g>
 <path d="m248.86 319.56c-1.532 0-3.078-0.469-4.411-1.439-3.348-2.439-4.084-7.131-1.645-10.479l9.815-13.468-9.813-13.467c-2.439-3.348-1.703-8.039 1.645-10.479 3.349-2.439 8.039-1.702 10.479 1.645l13.031 17.884c1.918 2.633 1.918 6.202 0 8.834l-13.033 17.885c-1.468 2.014-3.752 3.083-6.068 3.084z" fill="#FF9518"/>
 <path d="m297.07 439.52v69.032c36.639-6.186 70.513-20.496 99.703-41.026v-28.006h-99.703z" fill="#EF8318"/>
 <path d="m297.07 439.52v69.032c6.712-1.133 13.328-2.545 19.843-4.212v-64.82h-19.843z" fill="#DB722C"/>
 <path d="m398.51 398.57v-103.93c0-8.25-6.75-15-15-15h-0.416c-6.12 0-11.407 3.719-13.733 9.004-2.326-5.285-7.613-9.004-13.733-9.004h-0.417c-6.12 0-11.407 3.719-13.733 9.004-2.326-5.285-7.613-9.004-13.733-9.004h-0.416c-5.182 0-9.77 2.665-12.467 6.69v-48.584c0-8.25-6.75-15-15-15h-0.416c-8.25 0-15 6.75-15 15v101.57l-12.454-12.454c-5.833-5.833-15.379-5.833-21.213 0l-1.984 1.985c-5.834 5.833-5.834 15.38 0 21.213l48.512 48.512h101.2z" fill="#FFE2B8"/>
 <path d="m317.14 398.57-48.512-48.512c-5.834-5.833-5.834-15.38 0-21.213l1.984-1.985c0.22-0.22 0.455-0.415 0.685-0.619-5.873-5.19-14.915-4.994-20.528 0.619l-1.984 1.985c-5.834 5.833-5.834 15.38 0 21.213l48.512 48.512h19.843z" fill="#FFC987"/>
 <path d="m406.92 435.52c0 2.75-2.25 5-5 5h-109.98c-2.75 0-5-2.25-5-5v-32.954c0-2.75 2.25-5 5-5h109.98c2.75 0 5 2.25 5 5v32.954z" fill="#FF9518"/>
 <path d="m306.78 435.52v-32.954c0-2.75 2.25-5 5-5h-19.843c-2.75 0-5 2.25-5 5v32.954c0 2.75 2.25 5 5 5h19.843c-2.75 0-5-2.25-5-5z" fill="#EF8318"/>
 <circle cx="384.95" cy="419.05" r="9.294" fill="#DB722C"/>
 <path d="m478.71 240.04c0 2.75-2.25 5-5 5h-143.79c-2.75 0-5-2.25-5-5v-103.74c0-2.75 2.25-5 5-5h143.79c2.75 0 5 2.25 5 5v103.74z" fill="#FE3745"/>
 <path d="m376.7 165.29c0-5.5 3.897-7.75 8.66-5l39.635 22.883c4.763 2.75 4.763 7.25 0 10l-39.635 22.884c-4.763 2.75-8.66 0.5-8.66-5v-45.767z" fill="#fff"/>
 <path d="m466.67 78.199c-12.404 0-22.496-10.092-22.496-22.496 0-2.059 0.283-4.052 0.804-5.947h-115.06c-2.75 0-5 2.25-5 5v59.315c0 2.75 2.25 5 5 5h143.79c2.75 0 5-2.25 5-5v-39.376c-3.483 2.215-7.609 3.504-12.034 3.504z" fill="#FFAF10"/>
 <path d="m344.76 240.04v-103.74c0-2.75 2.25-5 5-5h-19.843c-2.75 0-5 2.25-5 5v103.74c0 2.75 2.25 5 5 5h19.843c-2.75 0-5-2.25-5-5z" fill="#B7092B"/>
 <path d="m344.76 114.07v-59.315c0-2.75 2.25-5 5-5h-19.843c-2.75 0-5 2.25-5 5v59.315c0 2.75 2.25 5 5 5h19.843c-2.75 0-5-2.25-5-5z" fill="#EF9614"/>
 <circle cx="466.67" cy="55.703" r="23.496" fill="#B7092B"/>
 <path d="m467.38 68.534c-2.762 0-5-2.238-5-5v-10.874c-2.06-0.618-3.561-2.529-3.561-4.79 0-2.762 2.238-5 5-5h3.561c2.762 0 5 2.238 5 5v15.664c0 2.762-2.238 5-5 5z" fill="#EEF6FF"/>
 <g fill="#DB722C">
  <path d="m420.72 80.223h-71.596c-4.143 0-7.5-3.358-7.5-7.5 0-4.143 3.357-7.5 7.5-7.5h71.596c4.143 0 7.5 3.357 7.5 7.5 0 4.142-3.358 7.5-7.5 7.5z"/>
  <path d="m442.36 103.41h-93.241c-4.143 0-7.5-3.357-7.5-7.5s3.357-7.5 7.5-7.5h93.241c4.143 0 7.5 3.357 7.5 7.5s-3.357 7.5-7.5 7.5z"/>
 </g>
 <circle cx="194.56" cy="116" r="37.33" fill="#EF8318"/>
 <circle cx="194.56" cy="116" r="30" fill="#FF9518"/>
 <path d="m206.32 124.52h-6.663v-1.604c5.68-2.079 9.742-7.518 9.742-13.917 0-8.191-6.642-14.833-14.833-14.833-8.192 0-14.833 6.642-14.833 14.833 0 6.4 4.062 11.838 9.742 13.917v1.604h-6.663c-2.661 0-4.837 2.178-4.837 4.839v11.633c4.753 3.161 10.455 5.007 16.591 5.007s11.839-1.846 16.591-5.007v-11.635c1e-3 -2.66-2.176-4.837-4.837-4.837z" fill="#fff"/>
 <path d="m161 213.39c0 2.75-2.25 5-5 5h-29c-2.75 0-5-2.25-5-5v-29c0-2.75 2.25-5 5-5h29c2.75 0 5 2.25 5 5v29z" fill="#FF9518"/>
 <path d="m134.51 213.39v-29c0-2.75 2.25-5 5-5h-12.509c-2.75 0-5 2.25-5 5v29c0 2.75 2.25 5 5 5h12.509c-2.75 0-5-2.25-5-5z" fill="#EF8318"/>
 <g fill="#1A2B63">
  <path d="m227.67 198.89c0-2.823 0.963-5.419 2.565-7.5h-53.565c-4.142 0-7.5 3.357-7.5 7.5s3.358 7.5 7.5 7.5h53.565c-1.601-2.081-2.565-4.677-2.565-7.5z"/>
  <path d="m262 191.39h-12.232c1.602 2.081 2.565 4.677 2.565 7.5s-0.963 5.419-2.565 7.5h12.232c4.143 0 7.5-3.357 7.5-7.5s-3.357-7.5-7.5-7.5z"/>
 </g>
 <circle cx="240" cy="198.89" r="13.333" fill="#FF9518"/>
</svg>
