<svg width="150px" version="1.1" viewBox="0 0 512 512"
					xmlns="http://www.w3.org/2000/svg">
					<path d="m196 169.6c-5.0977 0-10.5 0-15.902 0.59766h-0.89844c-98.398 9.3008-179.2 102.7-179.2 206.8 0 120.9 112.3 135 196 135 83.102 0 180-12.598 193.5-111.9 14.098-116.4-78.301-230.5-193.5-230.5z"
						fill="#666" />
					<path d="m389.5 400.1c-13.5 99.301-110.4 111.9-193.5 111.9v-342.4c115.2 0 207.6 114.1 193.5 230.5z"
						fill="#808080" />
					<path d="m300.1 49.801-30 91h-148.2l-30-91c-1.8047-4.5-0.90234-9.6016 1.7969-13.5 3-3.8984 7.5-6.3008 12.301-6.3008h47.699c6-17.402 22.801-30 42.301-30s36 12.598 42.301 30h47.699c4.8008 0 9.3008 2.4023 12.301 6.3008 2.6992 3.8984 3.6016 9 1.7969 13.5z"
						fill="#666" />
					<path d="m300.1 49.801-30 91h-74.098v-140.8c19.5 0 36 12.598 42.301 30h47.699c4.8008 0 9.3008 2.4023 12.301 6.3008 2.6992 3.8984 3.6016 9 1.7969 13.5z"
						fill="#808080" />
					<path d="m240.7 381.5c0 19.5-12.297 35.699-29.699 42v13.5c0 8.4023-6.5977 15-15 15s-15-6.5977-15-15v-13.199c-17.402-6.3008-30.301-22.801-30.301-42.301 0-8.3984 6.8984-15 15-15 8.4023 0 15 6.6016 15 15 0 8.1016 6.8984 15 15 15h0.30078c8.4023-0.30078 14.699-6.8984 14.699-15 0-8.3984-6.2969-14.699-14.699-15h-0.30078c-24.598 0-45-20.402-45-45 0-19.801 12.902-36.301 30.301-42.301v-22.199c0-8.4023 6.5977-15 15-15s15 6.5977 15 15v22.199c17.402 6.3008 29.699 22.801 29.699 42.301 0 8.1016-6.5977 15-15 15-8.1016 0-15-6.8984-15-15 0-8.3984-6.2969-14.699-14.699-15h-0.30078c-8.1016 0-15 6.6016-15 15 0 8.1016 6.8984 15 15 15h0.30078c24.902 0.30078 44.699 20.102 44.699 45z"
						fill="#ffda2d" />
					<path d="m512 302c0 16.5-13.5 30-30 30l-76 30-75-30c-16.5 0-30-13.5-30-30s13.5-30 30-30h151c16.5 0 30 13.5 30 30z"
						fill="#ffda2d" />
					<path d="m512 302c0 16.5-13.5 30-30 30l-76 30v-90h76c16.5 0 30 13.5 30 30z"
						fill="#fdbf00" />
					<path d="m512 362c0 16.5-13.5 30-30 30l-76 30-75-30c-16.5 0-30-13.5-30-30s13.5-30 30-30h151c16.5 0 30 13.5 30 30z"
						fill="#fdbf00" />
					<path d="m512 362c0 16.5-13.5 30-30 30l-76 30v-90h76c16.5 0 30 13.5 30 30z"
						fill="#ff9100" />
					<path d="m512 422c0 16.5-13.5 30-30 30l-76 30-75-30c-16.5 0-30-13.5-30-30s13.5-30 30-30h151c16.5 0 30 13.5 30 30z"
						fill="#ffda2d" />
					<path d="m512 422c0 16.5-13.5 30-30 30l-76 30v-90h76c16.5 0 30 13.5 30 30z"
						fill="#fdbf00" />
					<path d="m512 482c0 16.5-13.5 30-30 30h-151c-16.5 0-30-13.5-30-30s13.5-30 30-30h151c16.5 0 30 13.5 30 30z"
						fill="#fdbf00" />
					<path d="m512 482c0 16.5-13.5 30-30 30h-76v-60h76c16.5 0 30 13.5 30 30z"
						fill="#ff9100" />
					<path d="m301 151c0 16.5-13.5 30-30 30h-150c-16.5 0-30-13.5-30-30s13.5-30 30-30h150c16.5 0 30 13.5 30 30z"
						fill="#ffda2d" />
					<g fill="#fdbf00">
						<path
							d="m240.7 381.5c0 19.5-12.297 35.699-29.699 42v13.5c0 8.4023-6.5977 15-15 15v-55.5c8.4023-0.30078 14.699-6.8984 14.699-15 0-8.3984-6.2969-14.699-14.699-15v-30c24.902 0.30078 44.699 20.102 44.699 45z" />
						<path
							d="m240.7 321.5c0 8.1016-6.5977 15-15 15-8.1016 0-15-6.8984-15-15 0-8.3984-6.2969-14.699-14.699-15v-64.5c8.4023 0 15 6.5977 15 15v22.199c17.402 6.3008 29.699 22.801 29.699 42.301z" />
						<path
							d="m301 151c0 16.5-13.5 30-30 30h-75v-60h75c16.5 0 30 13.5 30 30z" />
					</g>
				</svg>
