<svg enable-background="new 0 0 512 512" version="1.1" viewBox="0 0 512 512" xmlns="http://www.w3.org/2000/svg">
 <path d="m473.66 88.276h-435.31c-21.178 0-38.345 17.167-38.345 38.345v258.76c0 21.177 17.167 38.345 38.345 38.345h435.31c21.177 0 38.345-17.167 38.345-38.345v-258.76c0-21.178-17.167-38.345-38.345-38.345z" fill="#41479B"/>
 <path d="m511.47 120.28c-3.022-18.159-18.797-32.007-37.814-32.007h-9.977l-163.54 107.15v-107.15h-88.276v107.15l-163.54-107.15h-9.977c-19.017 0-34.792 13.847-37.814 32.007l139.78 91.58h-140.31v88.276h140.31l-139.78 91.578c3.022 18.159 18.797 32.007 37.814 32.007h9.977l163.54-107.15v107.15h88.276v-107.15l163.54 107.15h9.977c19.017 0 34.792-13.847 37.814-32.007l-139.78-91.58h140.31v-88.276h-140.31l139.78-91.579z" fill="#F5F5F5"/>
 <g fill="#FF4B55">
  <polygon points="282.48 88.276 229.52 88.276 229.52 229.52 0 229.52 0 282.48 229.52 282.48 229.52 423.72 282.48 423.72 282.48 282.48 512 282.48 512 229.52 282.48 229.52"/>
  <path d="m24.793 421.25 186.58-121.11h-32.428l-169.72 110.17c4.153 4.847 9.49 8.645 15.569 10.942z"/>
  <path d="m346.39 300.14h-32.428l180.72 117.3c5.057-3.321 9.277-7.807 12.287-13.075l-160.58-104.23z"/>
  <path d="m4.049 109.48 157.73 102.39h32.428l-178.73-116.02c-4.799 3.572-8.726 8.242-11.426 13.633z"/>
  <path d="m332.57 211.86 170.04-110.38c-4.199-4.831-9.578-8.607-15.699-10.86l-186.76 121.24h32.428z"/>
 </g>
</svg>
