<svg class="mr-2" width="35px" height="35px" enable-background="new 0 0 510 510"
							version="1.1" viewBox="0 0 510 510" xmlns="http://www.w3.org/2000/svg">
							<g fill="#999">
								<g id="camera" fill="#999">
									<path d="m188.7 216.75 122.4-211.65c-17.85-2.55-38.25-5.1-56.1-5.1-61.2 0-117.3 20.4-160.65 58.65l94.35 160.65v-2.55zm308.55-38.25c-22.95-73.95-79.05-135.15-153-160.65l-91.8 160.65h244.8zm7.65 25.5h-191.25l7.649 12.75 122.4 211.65c40.8-45.9 66.3-107.1 66.3-173.4 0-17.85-2.55-35.7-5.1-51zm-339.15 51-99.45-173.4c-40.8 45.9-66.3 107.1-66.3 173.4 0 17.85 2.55 35.7 5.1 51h191.25l-30.6-51zm-153 76.5c22.95 73.95 79.05 135.15 153 160.65l94.35-160.65h-247.35zm285.6 0-99.45 173.4c17.85 5.1 35.7 5.1 56.1 5.1 61.2 0 117.3-20.4 160.65-58.65l-94.35-160.65-22.95 40.8z"
										fill="#999" />
								</g>
							</g>
						</svg>
