<svg enable-background="new 0 0 512.4 512.4" version="1.1" viewBox="0 0 512.4 512.4" xmlns="http://www.w3.org/2000/svg">
 <path d="m512 125.7c-0.6-20.7-17.5-37.3-38.3-37.3h-435.4c-21.1 0.1-38.3 17.2-38.3 38.4v258.8 1.1c0.1 5.2 1.3 10.1 3.3 14.5 0.2 0.6 0.5 1.1 0.8 1.6s0.5 1 0.8 1.6v0.1c0.3 0.5 0.6 1 0.9 1.5 0 0 0 0.1 0.1 0.1 0.3 0.5 0.6 0.9 0.9 1.4l0.1 0.1c0.3 0.5 0.6 0.9 1 1.3 0 0.1 0.1 0.1 0.1 0.2 0.3 0.4 0.7 0.8 1 1.2l0.2 0.2c0.3 0.4 0.7 0.8 1 1.2l0.2 0.2c0.3 0.4 0.7 0.7 1.1 1.1l0.2 0.2c0.4 0.3 0.7 0.7 1.1 1l0.3 0.3c0.4 0.3 0.7 0.6 1.1 0.9 0.1 0.1 0.2 0.2 0.4 0.3 0.4 0.3 0.7 0.6 1.1 0.8 0.1 0.1 0.3 0.2 0.4 0.3 0.4 0.3 0.7 0.5 1.1 0.7 0.2 0.1 0.3 0.2 0.5 0.3 0.4 0.2 0.7 0.5 1.1 0.7 0.2 0.1 0.4 0.2 0.5 0.3 0.3 0.2 0.7 0.4 1 0.6l0.6 0.3c0.3 0.2 0.7 0.4 1 0.5 0.2 0.1 0.4 0.2 0.7 0.3 0.3 0.2 0.7 0.3 1 0.5 0.2 0.1 0.5 0.2 0.7 0.3 0.3 0.1 0.7 0.3 1 0.4s0.5 0.2 0.8 0.3 0.6 0.2 1 0.3c0.3 0.1 0.6 0.2 0.9 0.2 0.3 0.1 0.6 0.2 0.9 0.3s0.6 0.1 0.9 0.2 0.6 0.1 0.9 0.2 0.7 0.1 1 0.2 0.6 0.1 0.9 0.2c0.4 0.1 0.7 0.1 1.1 0.1 0.3 0 0.5 0.1 0.8 0.1 0.4 0 0.8 0.1 1.3 0.1 0.2 0 0.4 0 0.7 0.1h2 435.3 2c0.2 0 0.4 0 0.7-0.1 0.4 0 0.8-0.1 1.3-0.1 0.3 0 0.5-0.1 0.8-0.1 0.4 0 0.7-0.1 1.1-0.1 0.3 0 0.6-0.1 0.9-0.2s0.7-0.1 1-0.2 0.6-0.1 0.9-0.2 0.6-0.1 0.9-0.2 0.6-0.2 0.9-0.3 0.6-0.2 0.9-0.2c0.3-0.1 0.6-0.2 1-0.3 0.3-0.1 0.5-0.2 0.8-0.3s0.7-0.3 1-0.4c0.2-0.1 0.5-0.2 0.7-0.3 0.3-0.1 0.7-0.3 1-0.5 0.2-0.1 0.4-0.2 0.7-0.3 0.3-0.2 0.7-0.3 1-0.5l0.6-0.3c0.4-0.2 0.7-0.4 1-0.6 0.2-0.1 0.4-0.2 0.5-0.3 0.4-0.2 0.7-0.4 1.1-0.7 0.2-0.1 0.3-0.2 0.5-0.3 0.4-0.2 0.7-0.5 1.1-0.7 0.1-0.1 0.3-0.2 0.4-0.3 0.4-0.3 0.7-0.5 1.1-0.8 0.1-0.1 0.2-0.2 0.4-0.3 0.4-0.3 0.7-0.6 1.1-0.9l0.3-0.3c0.4-0.3 0.7-0.7 1.1-1 0.1-0.1 0.2-0.2 0.3-0.2l1.3-1.3c0.4-0.4 0.7-0.8 1-1.2l0.2-0.2c0.3-0.4 0.7-0.8 1-1.2 0-0.1 0.1-0.1 0.1-0.2 0.3-0.4 0.7-0.9 1-1.3l0.1-0.1c0.3-0.5 0.6-0.9 0.9-1.4 0 0 0-0.1 0.1-0.1 0.3-0.5 0.6-1 0.9-1.5v-0.1c0.3-0.5 0.6-1 0.8-1.6 0.3-0.5 0.5-1.1 0.8-1.6 2-4.5 3.2-9.4 3.3-14.5v-1.1-258.8c-0.4-0.3-0.4-0.7-0.4-1.1z" fill="#F5F5F5"/>
 <path d="m0 312.1h512v37.3h-512v-37.3zm3.3 89.1c0.2 0.6 0.5 1.1 0.8 1.6s0.5 1 0.8 1.6v0.1c0.3 0.5 0.6 1 0.9 1.5 0 0 0 0.1 0.1 0.1 0.3 0.5 0.6 0.9 0.9 1.4l0.1 0.1c0.3 0.5 0.6 0.9 1 1.3 0 0.1 0.1 0.1 0.1 0.2 0.3 0.4 0.7 0.8 1 1.2l0.2 0.2c0.3 0.4 0.7 0.8 1 1.2l0.2 0.2c0.3 0.4 0.7 0.7 1.1 1.1l0.2 0.2c0.4 0.3 0.7 0.7 1.1 1l0.3 0.3c0.4 0.3 0.7 0.6 1.1 0.9 0.1 0.1 0.2 0.2 0.4 0.3 0.4 0.3 0.7 0.6 1.1 0.8 0.1 0.1 0.3 0.2 0.4 0.3 0.4 0.3 0.7 0.5 1.1 0.7 0.2 0.1 0.3 0.2 0.5 0.3 0.4 0.2 0.7 0.5 1.1 0.7 0.2 0.1 0.4 0.2 0.5 0.3 0.3 0.2 0.7 0.4 1 0.6l0.6 0.3c0.3 0.2 0.7 0.4 1 0.5 0.2 0.1 0.4 0.2 0.7 0.3 0.3 0.2 0.7 0.3 1 0.5 0.2 0.1 0.5 0.2 0.7 0.3 0.3 0.1 0.7 0.3 1 0.4s0.5 0.2 0.8 0.3 0.6 0.2 1 0.3c0.3 0.1 0.6 0.2 0.9 0.2 0.3 0.1 0.6 0.2 0.9 0.3s0.6 0.1 0.9 0.2 0.6 0.1 0.9 0.2 0.7 0.1 1 0.2 0.6 0.1 0.9 0.2c0.4 0.1 0.7 0.1 1.1 0.1 0.3 0 0.5 0.1 0.8 0.1 0.4 0 0.8 0.1 1.3 0.1 0.2 0 0.4 0 0.7 0.1h2 435.3 2c0.2 0 0.4 0 0.7-0.1 0.4 0 0.8-0.1 1.3-0.1 0.3 0 0.5-0.1 0.8-0.1 0.4 0 0.7-0.1 1.1-0.1 0.3 0 0.6-0.1 0.9-0.2s0.7-0.1 1-0.2 0.6-0.1 0.9-0.2 0.6-0.1 0.9-0.2 0.6-0.2 0.9-0.3 0.6-0.2 0.9-0.2c0.3-0.1 0.6-0.2 1-0.3 0.3-0.1 0.5-0.2 0.8-0.3s0.7-0.3 1-0.4c0.2-0.1 0.5-0.2 0.7-0.3 0.3-0.1 0.7-0.3 1-0.5 0.2-0.1 0.4-0.2 0.7-0.3 0.3-0.2 0.7-0.3 1-0.5l0.6-0.3c0.4-0.2 0.7-0.4 1-0.6 0.2-0.1 0.4-0.2 0.5-0.3 0.4-0.2 0.7-0.4 1.1-0.7 0.2-0.1 0.3-0.2 0.5-0.3 0.4-0.2 0.7-0.5 1.1-0.7 0.1-0.1 0.3-0.2 0.4-0.3 0.4-0.3 0.7-0.5 1.1-0.8 0.1-0.1 0.2-0.2 0.4-0.3 0.4-0.3 0.7-0.6 1.1-0.9l0.3-0.3c0.4-0.3 0.7-0.7 1.1-1 0.1-0.1 0.2-0.2 0.3-0.2l1.3-1.3c0.4-0.4 0.7-0.8 1-1.2l0.2-0.2c0.3-0.4 0.7-0.8 1-1.2 0-0.1 0.1-0.1 0.1-0.2 0.3-0.4 0.7-0.9 1-1.3l0.1-0.1c0.3-0.5 0.6-0.9 0.9-1.4 0 0 0-0.1 0.1-0.1 0.3-0.5 0.6-1 0.9-1.5v-0.1c0.3-0.5 0.6-1 0.8-1.6 0.3-0.5 0.5-1.1 0.8-1.6 2-4.5 3.2-9.4 3.3-14.5h-512.4c0.2 5.1 1.3 10 3.3 14.5zm173.3-238.2v37.3h-69.6v74.5h405v-37.3h-335.4v-37.3h335.4v-37.3h-335.4v0.1zm-107 37.3h-69.6v74.6h69.6v-74.6zm442.4-74.6c-0.6-20.7-17.5-37.3-38.3-37.3h-366.8v74.5h69.6v-37.3h335.5v0.1zm-442.4-37.2h-31.3c-21.1 0-38.3 17.1-38.3 38.3v36.2h69.6v-74.5z" fill="#41479B"/>
</svg>
