<svg class="leftArrow" enable-background="new 0 0 491.398 491.398" version="1.1"
					viewBox="0 0 491.4 491.4" xmlns="http://www.w3.org/2000/svg">
					<path fill="#fff"
						d="m481.76 220.42-205.29-205.3c-16.967-16.918-44.557-16.942-61.559 0.023l-205.29 205.28c-12.835 12.833-12.835 33.65 0 46.483 12.843 12.842 33.646 12.842 46.487 0l27.828-27.832v214.87c0 19.343 15.682 35.024 35.027 35.024h74.826v-97.62c0-7.584 6.146-13.741 13.743-13.741h76.352c7.59 0 13.739 6.157 13.739 13.741v97.621h74.813c19.346 0 35.027-15.681 35.027-35.024v-214.86l27.812 27.815c6.425 6.421 14.833 9.63 23.243 9.63 8.408 0 16.819-3.209 23.242-9.63 12.844-12.834 12.844-33.65 0-46.484z" />
				</svg>
