<svg class="mr-2 mt-2" width="35px" height="35px" enable-background="new 0 0 512 512" version="1.1" viewBox="0 0 512 512" xmlns="http://www.w3.org/2000/svg">
							<path d="m488.73 325.82h-465.45c-12.8 0-23.273-10.473-23.273-23.273v-256c0-12.8 10.473-23.273 23.273-23.273h465.46c12.8 0 23.273 10.473 23.273 23.273v256c-1e-3 12.8-10.474 23.273-23.274 23.273z" fill="#0E9347"/>
							<path d="m430.54 232.73c-26.764 0-51.2 12.8-65.164 33.745-11.636-5.817-24.436-10.472-39.563-10.472-40.727 0-74.473 30.255-80.291 69.818h243.2c11.636 0 20.945-8.145 23.273-19.782-4.655-40.727-39.564-73.309-81.455-73.309z" fill="#0D8944"/>
							<path d="m442.18 302.54h-372.36c0-25.6-20.945-46.545-46.545-46.545v-162.91c25.6 0 46.545-20.945 46.545-46.545h372.36c0 25.6 20.945 46.545 46.545 46.545v162.91c-25.6 0-46.545 20.945-46.545 46.545z" fill="#3BB54A"/>
							<g fill="#0E9347">
								<path d="m430.54 232.73c-26.764 0-51.2 12.8-65.164 33.745-11.636-5.817-24.436-10.472-39.563-10.472-32.582 0-60.509 18.618-73.309 46.545h189.67c0-25.6 19.782-45.382 45.382-46.545-15.128-13.964-34.909-23.273-57.019-23.273z"/>
								<ellipse cx="256" cy="174.54" rx="93.091" ry="104.73"/>
								<circle cx="116.36" cy="174.54" r="23.273"/>
								<circle cx="395.64" cy="174.54" r="23.273"/>
							</g>
							<path d="m267.64 162.91h-23.273c-6.982 0-11.636-4.655-11.636-11.636 0-6.982 4.655-11.636 11.636-11.636h34.909c6.982 0 11.636-4.655 11.636-11.636 0-6.982-4.655-11.636-11.636-11.636h-11.636c0-6.982-4.655-11.636-11.636-11.636-6.982 0-11.636 4.655-11.636 11.636-19.782 0-34.909 15.127-34.909 34.909s15.127 34.909 34.909 34.909h23.273c6.982 0 11.636 4.655 11.636 11.636 0 6.982-4.655 11.636-11.636 11.636h-34.909c-6.982 0-11.636 4.655-11.636 11.636 0 6.982 4.655 11.636 11.636 11.636h11.636c0 6.982 4.655 11.636 11.636 11.636 6.982 0 11.636-4.655 11.636-11.636 19.782 0 34.909-15.127 34.909-34.909s-15.127-34.909-34.909-34.909z" fill="#89C763"/>
							<circle cx="302.54" cy="337.46" r="81.455" fill="#FFCA5D"/>
							<circle cx="407.27" cy="314.18" r="81.455" fill="#F6B545"/>
							<path d="m407.27 232.73c-45.382 0-81.455 36.073-81.455 81.455s36.073 81.455 81.455 81.455 81.455-36.073 81.455-81.455-36.073-81.455-81.455-81.455zm0 139.64c-32.582 0-58.182-25.6-58.182-58.182s25.6-58.182 58.182-58.182 58.182 25.6 58.182 58.182-25.6 58.182-58.182 58.182z" fill="#FFCB5B"/>
							<path d="m407.27 394.47c45.382 1.164 81.455-36.073 81.455-80.291h-1.164c-5.818 0-10.473 4.655-11.636 10.473-2.327 16.291-10.473 31.418-22.109 41.891-9.309 9.309-22.109 15.127-36.073 17.454-5.819 0-10.473 4.655-10.473 10.473z" fill="#F6B545"/>
							<path d="m407.27 233.89c-45.382-1.164-81.455 36.073-81.455 80.291h1.164c5.818 0 10.473-4.655 11.636-10.473 2.327-16.291 10.473-31.418 22.109-41.891 9.309-9.309 22.109-15.127 36.073-17.455 5.818 1e-3 10.473-4.654 10.473-10.472z" fill="#FFE27A"/>
							<path d="m357.24 322.33c0-32.582 25.6-58.182 58.182-58.182 13.964 0 26.764 4.655 37.236 13.964-11.636-13.964-26.763-22.109-45.381-22.109-32.582 0-58.182 25.6-58.182 58.182 0 18.618 8.145 33.745 20.945 44.218-8.145-9.309-12.8-22.109-12.8-36.073z" fill="#F19920"/>
							<path d="m442.18 350.26c-1.164 0-2.327 0-3.491-1.164-2.327-2.327-2.327-5.818 0-8.145 6.982-6.982 10.473-17.455 10.473-26.764 0-3.491 2.327-5.818 5.818-5.818s5.818 2.327 5.818 5.818c0 12.8-4.655 25.6-12.8 34.909-2.327 1.164-4.655 1.164-5.818 1.164z" fill="#FFCB5B"/>
							<g fill="#F19920">
								<path d="m407.27 349.09c-6.982 0-11.636-4.655-11.636-11.636v-46.545c0-6.982 4.655-11.636 11.636-11.636s11.636 4.655 11.636 11.636v46.545c0 6.981-4.654 11.636-11.636 11.636z"/>
								<path d="m450.33 382.84c-8.145-29.091-29.091-52.364-55.855-62.836-4.655-26.764-22.109-50.036-44.218-64-13.964 15.127-23.273 34.909-23.273 57.018 0 45.382 36.073 81.455 81.455 81.455 15.128 1.163 29.091-3.491 41.891-11.637z"/>
							</g>
							<g fill="#E78825">
								<path d="m370.04 358.4c-8.145-10.473-13.964-23.273-13.964-37.236 0-16.291 6.982-31.418 18.618-41.891-2.327-3.491-4.655-5.818-6.982-8.145-11.636 10.473-18.618 25.6-18.618 43.055 1e-3 18.617 8.146 33.744 20.946 44.217z"/>
								<path d="m395.64 321.16v16.291c0 6.982 4.655 11.636 11.636 11.636s11.636-4.655 11.636-11.636v-2.327c-6.981-5.819-15.126-10.473-23.272-13.964z"/>
							</g>
							<path d="m450.33 382.84c-2.327-8.145-4.655-15.127-9.309-22.109-9.309 6.982-20.945 11.636-33.745 11.636-32.582 0-58.182-25.6-58.182-58.182 0-17.455 6.982-32.582 18.618-43.055-5.818-5.818-11.636-10.473-18.618-13.964-13.964 15.127-23.273 34.909-23.273 57.018 0 45.382 36.073 81.455 81.455 81.455 16.291 1e-3 30.254-4.653 43.054-12.799z" fill="#F6B545"/>
							<path d="m446.84 372.36c-8.145 5.818-18.618 9.309-29.091 11.636-5.818 1.164-10.473 5.818-10.473 11.636 16.291 0 30.255-4.655 43.055-12.8-1.163-3.491-2.327-6.981-3.491-10.472z" fill="#F19920"/>
							<path d="m349.09 257.16c-13.964 15.127-23.273 34.909-23.273 57.018h1.164c5.818 0 10.473-4.655 11.636-10.473 2.327-16.291 10.473-30.255 20.945-40.727-3.49-1.164-6.981-3.491-10.472-5.818z" fill="#FFCB5B"/>
							<circle cx="302.54" cy="337.46" r="81.455" fill="#F6B545"/>
							<path d="m290.91 395.64c0 8.145 1.164 15.127 3.491 23.273h8.145c45.382 0 81.455-36.073 81.455-81.455 0-8.145-1.164-15.127-3.491-23.273h-8.145c-45.382 1e-3 -81.455 36.074-81.455 81.455z" fill="#F19920"/>
							<path d="m302.54 256c-45.382 0-81.455 36.073-81.455 81.455s36.073 81.455 81.455 81.455 81.455-36.074 81.455-81.455-36.073-81.455-81.455-81.455zm0 139.64c-32.582 0-58.182-25.6-58.182-58.182s25.6-58.182 58.182-58.182 58.182 25.6 58.182 58.182-25.6 58.182-58.182 58.182z" fill="#FFCB5B"/>
							<path d="m302.54 417.74c45.382 1.164 81.455-36.072 81.455-80.29h-1.164c-5.818 0-10.473 4.655-11.636 10.473-2.327 16.291-10.473 31.418-22.109 41.891-9.309 9.309-22.109 15.127-36.073 17.455-5.818-1e-3 -10.473 4.653-10.473 10.471z" fill="#F6B545"/>
							<path d="m302.54 257.16c-45.382-1.164-81.455 36.073-81.455 80.291h1.164c5.818 0 10.473-4.655 11.636-10.473 2.327-16.291 10.473-31.418 22.109-41.891 9.309-9.309 22.109-15.127 36.073-17.455 5.819 0 10.473-4.654 10.473-10.472z" fill="#FFE27A"/>
							<path d="m252.51 345.6c0-32.582 25.6-58.182 58.182-58.182 13.964 0 26.764 4.655 37.236 13.964-11.636-13.964-26.764-22.109-45.382-22.109-32.582 0-58.182 25.6-58.182 58.182 0 18.618 8.145 33.745 20.945 44.218-8.144-9.309-12.799-22.109-12.799-36.073z" fill="#F19920"/>
							<path d="m337.46 373.53c-1.164 0-2.327 0-3.491-1.164-2.327-2.327-2.327-5.818 0-8.145 6.982-6.982 10.473-17.455 10.473-26.764 0-3.491 2.327-5.818 5.818-5.818s5.818 2.327 5.818 5.818c0 12.8-4.655 25.6-12.8 34.909-2.328 1.164-4.655 1.164-5.818 1.164z" fill="#FFCB5B"/>
							<path d="m302.54 372.36c-6.982 0-11.636-4.655-11.636-11.636v-46.545c0-6.982 4.655-11.636 11.636-11.636 6.982 0 11.636 4.655 11.636 11.636v46.545c1e-3 6.981-4.654 11.636-11.636 11.636z" fill="#F19920"/>
							<g fill="#F6B545">
								<path d="m356.07 315.34c2.327 6.982 4.655 13.964 4.655 22.109 0 32.582-25.6 58.182-58.182 58.182-3.491 0-8.145 0-11.636-1.164v1.164c0 8.145 1.164 15.127 3.491 23.273h8.145c45.382 0 81.455-36.073 81.455-81.455 0-8.145-1.164-15.127-3.491-23.273h-8.145c-5.82 1e-3 -10.474 1e-3 -16.292 1.164z"/>
								<circle cx="360.73" cy="407.27" r="81.455"/>
							</g>
							<path d="m360.73 325.82c-45.382 0-81.455 36.073-81.455 81.455s36.073 81.455 81.455 81.455 81.455-36.073 81.455-81.455-36.073-81.455-81.455-81.455zm0 139.64c-32.582 0-58.182-25.6-58.182-58.182s25.6-58.182 58.182-58.182 58.182 25.6 58.182 58.182-25.6 58.182-58.182 58.182z" fill="#FFCB5B"/>
							<path d="m360.73 487.56c45.382 1.164 81.455-36.073 81.455-80.291h-1.164c-5.818 0-10.473 4.655-11.636 10.473-2.327 16.291-10.473 31.418-22.109 41.891-9.309 9.309-22.109 15.127-36.073 17.455-5.818-1e-3 -10.473 4.653-10.473 10.472z" fill="#F6B545"/>
							<path d="m360.73 326.98c-45.382-1.164-81.455 36.073-81.455 80.291h1.164c5.818 0 10.473-4.655 11.636-10.473 2.327-16.291 10.473-31.418 22.109-41.891 9.309-9.309 22.109-15.127 36.073-17.455 5.819 1e-3 10.473-4.654 10.473-10.472z" fill="#FFE27A"/>
							<path d="m310.69 415.42c0-32.582 25.6-58.182 58.182-58.182 13.964 0 26.764 4.655 37.236 13.964-11.636-13.964-26.764-22.109-45.382-22.109-32.582 0-58.182 25.6-58.182 58.182 0 18.618 8.145 33.745 20.945 44.218-8.145-9.309-12.799-22.109-12.799-36.073z" fill="#F19920"/>
							<path d="m395.64 443.34c-1.164 0-2.327 0-3.491-1.164-2.327-2.327-2.327-5.818 0-8.145 6.982-6.982 10.473-17.455 10.473-26.764 0-3.491 2.327-5.818 5.818-5.818s5.818 2.327 5.818 5.818c0 12.8-4.655 25.6-12.8 34.909-2.327 1.164-4.654 1.164-5.818 1.164z" fill="#FFCB5B"/>
							<path d="m360.73 442.18c-6.982 0-11.636-4.655-11.636-11.636v-46.546c0-6.982 4.655-11.636 11.636-11.636 6.982 0 11.636 4.655 11.636 11.636v46.545c1e-3 6.982-4.654 11.637-11.636 11.637z" fill="#F19920"/>
						</svg>
