<?xml version="1.0" encoding="UTF-8" standalone="no"?>
<svg
   xmlns:dc="http://purl.org/dc/elements/1.1/"
   xmlns:cc="http://creativecommons.org/ns#"
   xmlns:rdf="http://www.w3.org/1999/02/22-rdf-syntax-ns#"
   xmlns:svg="http://www.w3.org/2000/svg"
   xmlns="http://www.w3.org/2000/svg"
   xmlns:sodipodi="http://sodipodi.sourceforge.net/DTD/sodipodi-0.dtd"
   xmlns:inkscape="http://www.inkscape.org/namespaces/inkscape"
   height="74.387"
   version="1.1"
   viewBox="0 0 62.015 74.387"
   id="svg4"
   sodipodi:docname="personalRecommendation.svg"
   inkscape:version="0.92.4 (unknown)">
  <metadata
     id="metadata10">
    <rdf:RDF>
      <cc:Work
         rdf:about="">
        <dc:format>image/svg+xml</dc:format>
        <dc:type
           rdf:resource="http://purl.org/dc/dcmitype/StillImage" />
      </cc:Work>
    </rdf:RDF>
  </metadata>
  <defs
     id="defs8" />
  <sodipodi:namedview
     pagecolor="#ffffff"
     bordercolor="#666666"
     borderopacity="1"
     objecttolerance="10"
     gridtolerance="10"
     guidetolerance="10"
     inkscape:pageopacity="0"
     inkscape:pageshadow="2"
     inkscape:window-width="780"
     inkscape:window-height="480"
     id="namedview6"
     showgrid="false"
     inkscape:zoom="3.1725973"
     inkscape:cx="-22.261158"
     inkscape:cy="37.193501"
     inkscape:window-x="0"
     inkscape:window-y="0"
     inkscape:window-maximized="0"
     inkscape:current-layer="svg4" />
  <path
     d="m0.87478 68.914c1.2629-7.8977 4.1705-12.74 9.9452-16.561 7.168-4.7436 12.968-6.2383 14.948-3.8526 1.7941 2.1617 8.6747 2.5463 9.9062 0.55367 2.7257-4.4103 18.697 2.9898 22.555 10.451 1.1195 2.1648 2.4293 6.399 2.9106 9.4093l0.87522 5.4733h-62.015zm25.461-24.365c-1.5868-1.1603-4.3968-1.5858-7.6181-1.1538-6.5295 0.87578-10.378-2.2646-10.378-8.4692 0-2.4097-0.6-4.7521-1.3333-5.2054-0.73333-0.45322-1.3333-1.94-1.3333-3.304 0-2.3254 0.81646-4.2745 6.7119-16.023 3.3274-6.6311 12.027-11.06 20.255-10.311 8.0603 0.73374 16.079 5.9444 18.235 11.85 0.89475 2.4501 2.4902 6.1534 3.5454 8.2295 3.9511 7.7736 0.973 14.108-4.9066 10.436-3.5164-2.1961-3.4718-2.2308-6.6633 5.1881-3.9479 9.1772-10.903 12.867-16.516 8.7632zm10.25-3.1616c2.8486-3.336 9.0876-15.025 9.0876-17.025 0-1.8557-2.8958-3.308-6.5959-3.308-1.3078 0-3.988-1.2665-5.9559-2.8145-3.2944-2.5914-3.7648-2.6456-5.9331-0.68333-1.2952 1.1722-4.266 2.7974-6.6017 3.6116-4.2357 1.4766-5.796 5.438-2.8572 7.2543 0.76423 0.47232 2.3486 3.2557 3.5207 6.1852 2.1462 5.3639 2.7703 5.5864 8.7564 3.122 1.3419-0.55244 2.3333-0.37163 2.3333 0.42554 0 0.76237-1.2 1.767-2.6667 2.2325-3.9406 1.2507-3.2367 3.3333 1.1267 3.3333 2.0863 0 4.6899-1.05 5.7857-2.3333zm-15.255-0.93422c0.76313-0.63476-5.1668-11.399-6.2796-11.399-2.0919 0-5.2168 5.5232-4.4243 7.8197 1.5343 4.4461 7.3314 6.3846 10.704 3.5794zm-5.2402-22.454c0.2295-1.9338 2.2255-5.0375 4.4356-6.8972 7.4225-6.2456 22.854-3.5391 24.572 4.3097 1.3833 6.3192 1.8665 7.2126 3.5753 6.6112 3.2033-1.1273 1.4544-9.039-3.0182-13.653-7.7735-8.0202-20.322-8.4802-28.219-1.0345-4.2727 4.0285-7.0464 10.19-5.9147 13.139 1.206 3.1427 4.0869 1.5818 4.5684-2.4752z"
     stroke-width="1.3333"
     id="path2"
     style="fill:#666666" />
</svg>
