<?xml version="1.0" encoding="UTF-8" standalone="no"?>
<svg
   xmlns:dc="http://purl.org/dc/elements/1.1/"
   xmlns:cc="http://creativecommons.org/ns#"
   xmlns:rdf="http://www.w3.org/1999/02/22-rdf-syntax-ns#"
   xmlns:svg="http://www.w3.org/2000/svg"
   xmlns="http://www.w3.org/2000/svg"
   xmlns:sodipodi="http://sodipodi.sourceforge.net/DTD/sodipodi-0.dtd"
   xmlns:inkscape="http://www.inkscape.org/namespaces/inkscape"
   height="74.387"
   enable-background="new 0 0 179.006 179.006"
   version="1.1"
   viewBox="0 0 179.01 179.01"
   id="svg28"
   sodipodi:docname="piggy.svg"
   inkscape:version="0.92.4 (unknown)">
  <metadata
     id="metadata34">
    <rdf:RDF>
      <cc:Work
         rdf:about="">
        <dc:format>image/svg+xml</dc:format>
        <dc:type
           rdf:resource="http://purl.org/dc/dcmitype/StillImage" />
      </cc:Work>
    </rdf:RDF>
  </metadata>
  <defs
     id="defs32" />
  <sodipodi:namedview
     pagecolor="#ffffff"
     bordercolor="#666666"
     borderopacity="1"
     objecttolerance="10"
     gridtolerance="10"
     guidetolerance="10"
     inkscape:pageopacity="0"
     inkscape:pageshadow="2"
     inkscape:window-width="780"
     inkscape:window-height="480"
     id="namedview30"
     showgrid="false"
     inkscape:zoom="1.3574661"
     inkscape:cx="31.602942"
     inkscape:cy="37.192254"
     inkscape:window-x="0"
     inkscape:window-y="0"
     inkscape:window-maximized="0"
     inkscape:current-layer="svg28" />
  <path
     d="m162.4 138.85c3.18-3.324 3.473-9.475 2.954-17.704-3.741-0.257-9.261 0.37-11.212 0-4.738-9.428-11.546-16.779-21.242-21.248 0.328-6.152 1.152-11.808 4.708-14.75-8.646-0.597-15.979 5.257-20.639 10.621-4.195-4.35-10.394-7.817-17.704-10.257l-4.541 8.079c-13.515-4.66-28.343-4.606-41.774 0.137l-5.925-7.96c-0.012-0.024-0.036-0.048-0.054-0.066-9.267 3.067-17.781 7.87-24.416 14.786-4.314-0.328-3.825-9.076 1.772-7.667-9.105-6.206-14.13 10.806-5.316 12.978-7.345 10.496-8.049 33.027 1.772 41.297 1.432 12.423 3.628 24.088 9.672 31.911h19.822c-0.519-4.034-1.044-8.33-0.591-13.032 12.047 2.733 26.35 3.532 40.7 2.363 2.214 3.67 4.356 7.411 7.005 10.663h19.637c-0.71-5.197-1.504-10.639-0.084-15.979 4.726-0.889 29.029-7.065 45.456-24.172zm-27.09-26.344c2.697 0 4.875 2.184 4.875 4.869 0 2.703-2.178 4.881-4.875 4.881-2.685 0-4.875-2.19-4.875-4.881-6e-3 -2.679 2.19-4.869 4.875-4.869z"
     id="path2"
     style="fill:#666666" />
  <g
     transform="matrix(.36794 0 0 .3482 58.152 48.902)"
     id="g8"
     style="fill:#666666">
    <path
       d="m48.58 0c-26.787 0-48.58 21.793-48.58 48.58s21.793 48.58 48.58 48.58 48.58-21.793 48.58-48.58-21.793-48.58-48.58-48.58zm0 86.823c-21.087 0-38.244-17.155-38.244-38.243s17.157-38.243 38.244-38.243 38.244 17.155 38.244 38.243-17.157 38.243-38.244 38.243z"
       id="path4"
       style="fill:#666666" />
    <path
       d="m73.898 47.08h-21.832v-26.25c0-2.209-1.791-4-4-4s-4 1.791-4 4v30.25c0 2.209 1.791 4 4 4h25.832c2.209 0 4-1.791 4-4s-1.791-4-4-4z"
       id="path6"
       style="fill:#666666" />
  </g>
  <g
     transform="matrix(.085703 .237 -.22429 .081105 108.1 22.835)"
     id="g14"
     style="fill:#666666">
    <path
       d="m48.58 0c-26.787 0-48.58 21.793-48.58 48.58s21.793 48.58 48.58 48.58 48.58-21.793 48.58-48.58-21.793-48.58-48.58-48.58zm0 86.823c-21.087 0-38.244-17.155-38.244-38.243s17.157-38.243 38.244-38.243 38.244 17.155 38.244 38.243-17.157 38.243-38.244 38.243z"
       id="path10"
       style="fill:#666666" />
    <path
       d="m73.898 47.08h-21.832v-26.25c0-2.209-1.791-4-4-4s-4 1.791-4 4v30.25c0 2.209 1.791 4 4 4h25.832c2.209 0 4-1.791 4-4s-1.791-4-4-4z"
       id="path12"
       style="fill:#666666" />
  </g>
  <g
     transform="matrix(-.20709 .017729 -.016778 -.19598 76.577 34.727)"
     id="g20"
     style="fill:#666666">
    <path
       d="m48.58 0c-26.787 0-48.58 21.793-48.58 48.58s21.793 48.58 48.58 48.58 48.58-21.793 48.58-48.58-21.793-48.58-48.58-48.58zm0 86.823c-21.087 0-38.244-17.155-38.244-38.243s17.157-38.243 38.244-38.243 38.244 17.155 38.244 38.243-17.157 38.243-38.244 38.243z"
       id="path16"
       style="fill:#666666" />
    <path
       d="m73.898 47.08h-21.832v-26.25c0-2.209-1.791-4-4-4s-4 1.791-4 4v30.25c0 2.209 1.791 4 4 4h25.832c2.209 0 4-1.791 4-4s-1.791-4-4-4z"
       id="path18"
       style="fill:#666666" />
  </g>
  <g
     transform="matrix(.084435 -.10673 .101 .079906 78.281 9.2046)"
     id="g26"
     style="fill:#666666">
    <path
       d="m48.58 0c-26.787 0-48.58 21.793-48.58 48.58s21.793 48.58 48.58 48.58 48.58-21.793 48.58-48.58-21.793-48.58-48.58-48.58zm0 86.823c-21.087 0-38.244-17.155-38.244-38.243s17.157-38.243 38.244-38.243 38.244 17.155 38.244 38.243-17.157 38.243-38.244 38.243z"
       id="path22"
       style="fill:#666666" />
    <path
       d="m73.898 47.08h-21.832v-26.25c0-2.209-1.791-4-4-4s-4 1.791-4 4v30.25c0 2.209 1.791 4 4 4h25.832c2.209 0 4-1.791 4-4s-1.791-4-4-4z"
       id="path24"
       style="fill:#666666" />
  </g>
</svg>
