	<svg class="mr-2" width="35px" height="35px" version="1.1" viewBox="0 0 750 750"
							xmlns="http://www.w3.org/2000/svg">
							<g fill="#999">
								<path
									d="m637.5 71.062v-71.062h-25v63.5c-4.1406-0.63281-8.3125-0.96094-12.5-1h-25v-62.5h-25v62.5h-37.5v-62.5h-25v62.5h-37.5v-62.5h-25v62.5h-37.5v-62.5h-25v62.5h-37.5v-62.5h-25v62.5h-37.5v-62.5h-25v62.5h-37.5v-62.5h-25v62.5h-25c-4.1875 0.039062-8.3594 0.36719-12.5 1v-63.5h-25v71.062c-18.145 8.668-32.77 23.293-41.438 41.438h-71.062v25h63.5c-0.63281 4.1406-0.96094 8.3125-1 12.5v25h-62.5v25h62.5v37.5h-62.5v25h62.5v37.5h-62.5v25h62.5v37.5h-62.5v25h62.5v37.5h-62.5v25h62.5v37.5h-62.5v25h62.5v37.5h-62.5v25h62.5v25c0.039062 4.1875 0.36719 8.3594 1 12.5h-63.5v25h71.062c8.668 18.145 23.293 32.77 41.438 41.438v71.062h25v-63.5c4.1406 0.63281 8.3125 0.96094 12.5 1h25v62.5h25v-62.5h37.5v62.5h25v-62.5h37.5v62.5h25v-62.5h37.5v62.5h25v-62.5h37.5v62.5h25v-62.5h37.5v62.5h25v-62.5h37.5v62.5h25v-62.5h25c4.1875-0.039062 8.3594-0.36719 12.5-1v63.5h25v-71.062c18.145-8.668 32.77-23.293 41.438-41.438h71.062v-25h-63.5c0.63281-4.1406 0.96094-8.3125 1-12.5v-25h62.5v-25h-62.5v-37.5h62.5v-25h-62.5v-37.5h62.5v-25h-62.5v-37.5h62.5v-25h-62.5v-37.5h62.5v-25h-62.5v-37.5h62.5v-25h-62.5v-37.5h62.5v-25h-62.5v-25c-0.039062-4.1875-0.36719-8.3594-1-12.5h63.5v-25h-71.062c-8.668-18.145-23.293-32.77-41.438-41.438zm25 528.94c-0.042969 34.5-28 62.457-62.5 62.5h-450c-34.5-0.042969-62.457-28-62.5-62.5v-450c0.042969-34.5 28-62.457 62.5-62.5h450c34.5 0.042969 62.457 28 62.5 62.5z" />
								<path
									d="m587.5 125h-425c-20.707 0-37.5 16.793-37.5 37.5v425c0 20.707 16.793 37.5 37.5 37.5h425c20.707 0 37.5-16.793 37.5-37.5v-425c0-20.707-16.793-37.5-37.5-37.5zm12.5 462.5c0 6.9062-5.5938 12.5-12.5 12.5h-425c-6.9062 0-12.5-5.5938-12.5-12.5v-425c0-6.9062 5.5938-12.5 12.5-12.5h425c6.9062 0 12.5 5.5938 12.5 12.5z" />
								<path d="m550 175h25v25h-25z" />
								<path d="m175 550h25v25h-25z" />
								<path
									d="m175 200v37.5h25v-37.5h37.5v-25h-37.5c-13.809 0-25 11.191-25 25z" />
								<path d="m550 550h-37.5v25h62.5v-62.5h-25z" />
							</g>
						</svg>
