<svg class="mr-2" width="35px" height="35px" version="1.1" viewBox="0 0 480 480"
							xmlns="http://www.w3.org/2000/svg">
							<g fill="#999">
								<path
									d="m421.65 50.344c-1.4961-1.5-3.5312-2.3438-5.6523-2.3438-2.125-0.003906-4.1641 0.83984-5.6641 2.3438l-3.0195 3.0234c-2.5625 2.5703-6.4219 3.3438-9.7773 1.957-3.3555-1.3906-5.543-4.6641-5.5391-8.293 0.007812-2.3789 0.94922-4.6562 2.6211-6.3438l3.0312-3.0352c3.125-3.1211 3.125-8.1875 0-11.309l-24-24c-3.1211-3.125-8.1875-3.125-11.309 0l-360 360c-3.125 3.1211-3.125 8.1875 0 11.309l24 24c3.1211 3.125 8.1875 3.125 11.309 0l3.0352-3.0312c2.5625-2.5664 6.4219-3.3359 9.7773-1.9453 3.3516 1.3906 5.5352 4.6602 5.5352 8.2891-0.011719 2.3789-0.95312 4.6562-2.625 6.3438l-3.0312 3.0352c-3.125 3.1211-3.125 8.1875 0 11.309l56 56c3.1211 3.125 8.1875 3.125 11.309 0l168-168c3.125-3.1211 3.125-8.1875 0-11.309l-18.344-18.344 12.691-12.691 18.344 18.344c3.1211 3.125 8.1875 3.125 11.309 0l168-168c3.125-3.1211 3.125-8.1875 0-11.309zm-285.65 386.34-12.691-12.688 12.691-12.691 12.688 12.691zm96-121.38 12.688 12.691-12.688 12.688-12.691-12.688zm-24 24 12.688 12.691-12.688 12.688-12.691-12.688zm-24 24 12.688 12.691-12.688 12.688-12.691-12.688zm-24 24 12.688 12.691-12.688 12.688-12.691-12.688zm108.69-83.309-12.688 12.688-12.691-12.688 12.691-12.691zm22.621-48 12.691-12.691 12.688 12.691-12.688 12.688zm108.69-108.69 12.688 12.691-12.688 12.688-12.691-12.688zm-24 24 12.688 12.691-12.688 12.688-12.691-12.688zm-24 24 12.688 12.691-12.688 12.688-12.691-12.688zm-24 24 12.688 12.691-12.688 12.688-12.691-12.688zm96-70.621-12.691-12.688 12.691-12.691 12.688 12.691zm24-24-18.348-18.344c-3.1211-3.125-8.1875-3.125-11.309 0l-312 312c-3.125 3.1211-3.125 8.1875 0 11.309l18.344 18.348-12.688 12.688-44.891-44.891c5.6055-7.5781 6.4609-17.668 2.2148-26.082-4.2461-8.4141-12.867-13.719-22.293-13.715-5.3438-0.015625-10.551 1.6953-14.84 4.8789l-12.883-12.879 348.69-348.69 12.887 12.891c-5.6055 7.5781-6.4609 17.668-2.2148 26.082s12.867 13.723 22.293 13.719c5.3438 0.011719 10.547-1.6992 14.84-4.875l44.883 44.875z" />
								<path
									d="m117.65 306.34c-3.1211-3.125-8.1875-3.125-11.309 0l-32 32c-3.125 3.1211-3.125 8.1875 0 11.309l32 32c3.1211 3.125 8.1875 3.125 11.309 0l32-32c3.125-3.1211 3.125-8.1875 0-11.309zm-5.6523 58.344-20.691-20.688 20.691-20.691 20.688 20.691z" />
								<path
									d="m181.65 242.34c-3.1211-3.125-8.1875-3.125-11.309 0l-32 32c-3.125 3.1211-3.125 8.1875 0 11.309l32 32c3.1211 3.125 8.1875 3.125 11.309 0l32-32c3.125-3.1211 3.125-8.1875 0-11.309zm-5.6523 58.344-20.691-20.688 20.691-20.691 20.688 20.691z" />
								<path
									d="m285.65 138.34c-3.1211-3.125-8.1875-3.125-11.309 0l-32 32c-3.125 3.1211-3.125 8.1875 0 11.309l32 32c3.1211 3.125 8.1875 3.125 11.309 0l32-32c3.125-3.1211 3.125-8.1875 0-11.309zm-5.6523 58.344-20.691-20.688 20.691-20.691 20.688 20.691z" />
								<path
									d="m349.65 74.344c-3.1211-3.125-8.1875-3.125-11.309 0l-32 32c-3.125 3.1211-3.125 8.1875 0 11.309l32 32c3.1211 3.125 8.1875 3.125 11.309 0l32-32c3.125-3.1211 3.125-8.1875 0-11.309zm-5.6523 58.344-20.691-20.688 20.691-20.691 20.688 20.691z" />
							</g>
						</svg>
