<svg class="mr-2" width="35px" height="35px" enable-background="new 0 0 60 60"
							version="1.1" viewBox="0 0 60 60" xmlns="http://www.w3.org/2000/svg">
							<g fill="#999">
								<path
									d="m30 20.5c-6.617 0-12 5.383-12 12s5.383 12 12 12 12-5.383 12-12-5.383-12-12-12z" />
								<path
									d="m55.201 15.5h-8.524l-4-10h-25.354l-4 10h-1.323v-5h-6v5h-1.201c-2.647 0-4.799 2.152-4.799 4.799v29.368c0 2.665 2.168 4.833 4.833 4.833h50.334c2.665 0 4.833-2.168 4.833-4.833v-29.368c0-2.647-2.152-4.799-4.799-4.799zm-45.201 0h-2v-3h2v3zm20 35c-9.925 0-18-8.075-18-18s8.075-18 18-18 18 8.075 18 18-8.075 18-18 18zm22-23c-2.206 0-4-1.794-4-4s1.794-4 4-4 4 1.794 4 4-1.794 4-4 4z" />
							</g>
						</svg>
